<svg xmlns="http://www.w3.org/2000/svg" viewBox="0 0 24 24" fill="currentColor">
  <path d="M12 7c2.76 0 5 2.24 5 5 0 .65-.13 1.26-.36 1.83l2.92 2.92c1.51-1.26 2.7-2.89 3.43-4.75-1.66-4.32-6.0-7.5-11-7.5-1.4 0-2.74.25-3.98.71l2.42 2.42c.67-.18 1.38-.28 2.06-.28zm-2.07 7.75l-1.07-1.07-1.07-1.07c-.4-.4-.53-.94-.39-1.46.33-1.26.9-2.34 1.77-3.23L4.19 2.82C2.88 4.29 1.93 5.98 1.27 7.9c1.66 4.32 6.0 7.5 11 7.5 1.13 0 2.2-.23 3.16-.62l-1.42-1.42c-.52.14-1.06.21-1.6.21zm4.84-2.81l-1.07-1.07-3.54-3.54L2.81 2.81 1.39 4.22 4.22 7.05 6.05 8.88 12 14.83 14.83 17.66 16.24 16.24 13.41 13.41z"/>
</svg>